<svg xmlns="http://www.w3.org/2000/svg" height="1024" preserveAspectRatio="xMidYMid meet" style="display: block;" version="1.1" viewBox="0 0 2048 2048" width="1024">

<path d="M 1018.12 1090.83 L 1010.55 753.21 L 1007.82 631.691 C 1007.6 621.489 1005.33 561.728 1008.19 555.559 L 1009.78 554.648 C 1016.68 558.367 1014.58 582.784 1014.75 591.232 L 1016.38 670.459 C 1017.98 772.513 1020.12 874.558 1022.8 976.59 L 1024.99 1074.96 C 1025.39 1093.74 1025.22 1117.79 1026.97 1136.21 L 1030.45 1129.82 C 1030.76 1126.48 1034.59 1120.54 1034.83 1114.14 C 1037.7 1036.87 1039.74 959.282 1040.77 882 L 1042.84 671.963 C 1042.92 658.542 1041.84 561.279 1043.63 556.7 C 1046.55 556.073 1046.4 556.196 1049.35 556.901 C 1051.18 562.989 1049.94 623.721 1049.96 633.729 C 1049.79 738.639 1048.72 843.546 1046.76 948.438 C 1046.11 986.584 1044.12 1025.14 1044.05 1063.39 C 1043.65 1072.44 1043.37 1081.48 1043.2 1090.53 L 1046.59 1079.76 C 1048.13 1077.13 1052.17 1071.03 1052.47 1068.14 C 1054.07 1052.88 1054.87 1037.43 1055.86 1022.11 L 1061.35 937.462 C 1066.97 841.343 1072.07 745.194 1076.62 649.018 C 1077.12 637.809 1078.53 562.811 1080.33 558.141 C 1083.23 556.535 1081.65 556.952 1085.34 557.379 C 1088.87 561.523 1085.43 596.735 1085.15 604.765 C 1079.18 754.437 1071.03 904.015 1060.71 1053.45 C 1064.84 1047.25 1067.03 1044.02 1071.91 1038.43 C 1076.92 1006.87 1080.43 962.755 1083.89 930.364 C 1096.4 813.19 1106.31 695.411 1117.82 578.118 C 1118.25 573.794 1118.64 566.004 1121.93 563.308 L 1125.42 564.535 C 1127.36 569.315 1121.27 612.744 1120.48 621.252 L 1102.91 806.14 C 1095.39 879.384 1089.34 950.323 1080.6 1023.9 C 1085.26 1019.35 1089.34 1014.98 1093.76 1010.19 C 1112.31 879.777 1131.63 749.473 1151.71 619.287 C 1154.04 603.837 1155.93 588.318 1158.35 572.882 C 1158.82 572.456 1159.3 572.03 1159.77 571.604 C 1162.95 572.11 1161.61 571.438 1163.92 573.713 C 1166.34 580.749 1156.06 637.001 1154.16 649.01 L 1135.54 773.047 L 1118.82 887.172 C 1113.97 922.126 1108.43 966.304 1101.14 1000.47 L 1115.02 988.419 L 1195 590.6 C 1195.75 586.91 1195.85 586.285 1198.56 584.49 C 1200.68 585.135 1201.49 585.353 1202.46 587.601 C 1203.81 590.7 1191.83 644.979 1190.12 653.26 L 1151.34 843.618 C 1143.67 883.165 1133.79 941.906 1123.7 979.594 C 1126.74 978.901 1134.93 971.491 1137.77 969.118 C 1141.62 963.8 1154.26 907.286 1156.92 896.941 L 1216.86 664.408 C 1221.19 648.043 1225.71 631.75 1229.55 615.254 C 1230.69 610.364 1232.28 602.385 1237.5 600.922 L 1238.65 602.091 C 1239.96 609.961 1228.44 648.898 1225.66 659.682 L 1189.23 798.379 L 1160.95 910.183 C 1156.95 926.195 1153.14 945.18 1148.58 960.648 C 1153.28 957.75 1158.01 954.914 1162.78 952.139 C 1165.96 949.698 1182.54 891.19 1185.75 880.964 C 1210.76 798.698 1236.92 716.785 1264.22 635.248 C 1265.65 630.936 1267.1 621.333 1270.02 618.933 C 1273.46 619.713 1272.08 618.819 1274.15 621.912 C 1274.49 625.319 1274.35 628.294 1273.2 631.548 C 1261.43 664.958 1250.77 699.03 1239.93 732.751 L 1174.34 942.697 C 1179.7 939.975 1186.33 935.606 1192.23 932.45 C 1195.1 921.546 1204.28 899.208 1208.48 887.783 L 1249.72 778.936 L 1283.91 688.416 C 1288.63 675.942 1296.97 651.989 1302.61 640.837 C 1305.63 638.952 1304.09 639.233 1307.23 639.43 L 1307.89 640.257 C 1308.42 643.528 1307.81 646.172 1306.61 649.318 C 1294.25 681.742 1281.84 714.358 1269.49 746.76 C 1246.34 806.108 1223.96 865.757 1202.36 925.69 C 1205.25 924.839 1217.21 919.097 1221 917.445 C 1236.13 886.969 1252.36 845.225 1266.43 812.871 C 1288.37 762.441 1313.48 710.667 1334.43 660.276 L 1340.87 665.477 C 1329.98 687.215 1320.78 708.802 1310.92 730.99 C 1295.19 765.851 1279.69 800.814 1264.41 835.876 C 1253.9 860.043 1243.32 886.137 1232.19 909.844 C 1235.76 909.666 1247.15 904.733 1251.55 903.138 C 1253.23 896.962 1259.88 885.66 1262.94 879.779 L 1282.67 841.288 L 1337.69 734.946 C 1341.43 727.849 1360.91 687.725 1365.53 685.514 L 1368.63 687.546 C 1370.29 693.414 1359.37 709.01 1356.25 714.982 C 1346.04 734.906 1335.69 754.759 1325.21 774.54 L 1261.63 897.805 C 1264.56 897.499 1277.89 892.342 1282.09 890.965 C 1289.4 886.501 1304.89 851.864 1311.17 843.943 C 1321.78 830.541 1384.2 715.221 1392.83 711.116 L 1395.96 714.422 C 1396.64 717.867 1370.38 759.179 1366.16 765.973 C 1341.83 805.194 1319.47 846.259 1295.4 885.535 C 1303.88 882.734 1311.4 880.297 1320.08 878.026 C 1343.26 844.534 1366.78 811.279 1390.63 778.266 L 1409.47 751.763 C 1411.76 748.479 1414.57 742.603 1417.87 741.159 C 1420.46 742.285 1420.27 742.224 1422.02 744.472 C 1420.51 750.596 1399.03 777.396 1393.98 785.063 C 1374.05 815.294 1350.98 844.891 1331.34 875.198 C 1340.71 871.745 1352.01 869.149 1361.79 866.627 C 1380.09 844.858 1398.6 823.267 1417.32 801.856 C 1425.05 792.852 1433.13 783.603 1440.48 774.24 C 1442.13 772.136 1442.53 772.547 1444.43 772.531 L 1446.55 775.08 C 1446.7 777.455 1446.99 777.801 1445.2 779.94 C 1421.51 808.326 1396.71 835.791 1372.7 863.923 C 1386.58 860.627 1401.22 857.671 1415.22 854.627 C 1421.99 848.515 1461.64 806.694 1466.75 805.956 C 1469.84 808.528 1469.06 806.992 1469.93 810.262 C 1467.54 813.719 1432.12 848.187 1427 853.238 C 1434.74 851.253 1439.01 850.588 1446.99 849.597 C 1459.85 845.141 1472.45 839.953 1484.72 834.058 C 1488.47 843.611 1490.66 848.038 1495.73 856.9 C 1460.56 871.496 1428.21 892.588 1396.41 914.064 C 1213.99 1037.24 1091.41 1237.25 1036.06 1447.8 C 1031.19 1466.32 1029.38 1486.99 1025.77 1505.82 C 1024.26 1503.2 1023.97 1502.3 1022.91 1499.41 C 1023.76 1472.92 1001.31 1397.68 992.066 1372.01 C 914.309 1155.99 770.231 956.47 556.998 856.906 C 560.653 850.495 564.909 841.139 568.25 834.341 L 606.94 851.756 C 613.351 852.717 620.118 853.85 626.516 854.643 C 621.908 850.306 583.642 812.962 582.836 810.19 C 583.5 806.938 583.543 807.178 585.857 804.729 C 593.625 809.246 627.977 847.061 637.904 856.33 C 651.547 859.498 666.895 862.245 680.092 865.671 C 663.913 846.236 647.579 826.93 631.093 807.756 C 623.373 798.736 613.216 786.069 605.08 777.985 C 604.452 774.823 605.12 772.999 608.388 771.477 C 613.584 774.941 640.885 808.58 647.399 816.225 C 662.01 833.374 678.573 851.787 693.079 869.03 C 704.78 871.711 714.18 874.006 725.271 878.718 C 694.258 836.588 665.431 792.795 634.191 750.827 C 632.47 748.515 630.609 745.025 629.994 742.257 L 630.788 740.51 C 633.133 739.861 633.938 739.616 636.15 741.14 C 640.13 743.883 730.068 872.871 735.242 882.003 C 744.845 883.56 758.966 889.929 763.692 890.402 C 728.08 834.544 695.61 776.283 660.442 720.08 C 659.144 718.004 657.776 714.929 657.615 712.464 L 660.602 709.717 L 662.3 709.93 C 690.106 754.322 717.19 799.161 743.543 844.431 C 752.619 859.684 766.243 880.17 774.363 895.049 C 782.481 898.162 790.535 901.438 798.521 904.875 C 775.123 854.148 745.283 802.03 719.519 752.188 C 715.357 744.135 686.395 693.086 685.041 687.659 C 687.269 685.266 686.834 685.189 689.608 683.971 C 693.41 686.506 699.798 701.925 702.468 706.731 C 723.396 743.8 743.598 781.273 763.064 819.13 C 778.736 849.575 793.165 880.303 810.414 909.949 C 818.67 913.723 824.924 916.926 832.871 921.327 C 806.938 862.999 780.447 804.92 753.402 747.099 L 728.02 691.975 C 724.742 684.862 714.593 668.192 716.317 661.192 L 718.159 659.423 C 722.987 661.322 746.557 715.479 750.651 724.263 C 768.076 761.242 785.246 798.341 802.159 835.557 C 806.502 845.3 841.131 923.582 844.775 926.367 C 848.745 928.855 859.519 936.172 863.336 936.768 C 846.572 898.912 831.171 852.591 815.492 813.568 C 799.785 774.678 784.34 735.683 769.158 696.585 L 754.518 658.762 C 752.061 652.471 746.715 644.758 747.907 638.09 L 749.744 636.214 L 751.596 636.318 C 757.92 644.56 759.243 655.072 763.138 663.865 C 768.85 676.761 773.793 689.252 779.003 702.336 L 833.128 839.313 C 846.184 873.26 859.187 909.414 872.624 942.915 L 888.182 951.83 C 880.943 923.227 870.528 891.95 861.617 863.562 C 842.126 802.052 822.003 740.744 801.25 679.648 C 798.726 672.086 779.881 621.467 780.897 617.078 L 782.306 615.347 C 787.636 616.246 788.942 620.55 790.413 625.183 C 795.352 640.746 800.744 656.152 805.969 671.622 C 827.291 735.369 848.248 799.237 868.84 863.223 C 875.088 882.216 881.156 901.268 887.042 920.376 C 890.732 932.43 895.518 950.142 899.841 961.576 C 906.127 965.633 909.446 968.481 915.166 973.379 C 896.472 897.303 876.799 821.47 856.153 745.9 C 848.515 716.837 840.693 687.99 832.41 659.098 C 827.071 640.474 822.514 618.618 816.121 600.578 C 817.305 598.186 817.583 598.698 820.546 597.198 L 822.476 597.763 C 829.806 617.915 839.362 657.829 845.572 680.016 C 863.757 746.027 881.362 812.196 898.383 878.516 C 906.335 909.224 915.724 949.656 924.876 979.68 C 929.506 983.789 934.671 988.129 938.883 992.602 C 914.821 859.451 883.314 726.764 854.654 594.522 C 853.974 591.385 852.602 586.097 853.854 583.254 L 857.176 581.977 C 861.77 586.03 875.206 654.773 877.587 665.639 C 890.067 720.775 901.964 776.041 913.274 831.429 C 924.808 885.694 938.066 943.963 947.248 999.031 C 947.271 999.439 947.294 999.848 947.317 1000.26 L 961.04 1013.07 C 947.932 934.636 937.11 854.893 924.303 776.128 L 896.901 609.639 C 895.439 600.365 889.751 580.263 891.848 572.011 L 893.468 570.78 C 900.154 573.917 902.414 601.069 903.743 609.342 L 913.344 668.537 L 951.291 902.944 C 955.13 927.049 958.795 951.18 962.286 975.338 C 964.437 989.931 966.309 1005.19 969.676 1019.54 C 971.291 1026.42 976.892 1032.94 981.178 1038.81 C 980.036 1003.83 972.873 954.019 969.08 917.803 L 939.408 653.068 C 938.283 643.365 928.517 567.041 930.646 563.171 C 932.047 563.167 933.305 562.81 934.063 563.858 C 939.647 571.574 939.76 596.159 940.736 604.727 L 949.658 680.498 C 960.955 776.827 971.618 873.228 981.646 969.697 C 983.978 991.861 988.009 1026.28 989.266 1049.94 C 989.274 1050.09 992.019 1053.85 992.473 1054.44 C 994.617 1057.39 997.428 1062.33 1000.24 1063.61 C 993.158 931.506 984.843 799.475 975.294 667.53 L 969.585 585.267 C 969.19 579.902 966.693 560.972 969.039 557.361 C 972.569 556.215 970.926 556.13 974.135 557.176 C 976.006 564.414 976.607 581.815 977.146 590.301 L 980.949 647.487 L 1001.45 957.069 C 1003.17 983.981 1004.71 1010.9 1006.06 1037.84 C 1006.78 1052.29 1007.32 1067.47 1008.61 1081.86 C 1009.07 1087.06 1014.39 1098.65 1016.64 1103.83 C 1018.64 1100.1 1017.74 1095.34 1018.12 1090.83 z" fill="rgb(11,11,12)" transform="translate(0,0)"></path>
<path d="M 1446.99 849.597 C 1459.85 845.141 1472.45 839.953 1484.72 834.058 C 1488.47 843.611 1490.66 848.038 1495.73 856.9 C 1460.56 871.496 1428.21 892.588 1396.41 914.064 C 1213.99 1037.24 1091.41 1237.25 1036.06 1447.8 C 1031.19 1466.32 1029.38 1486.99 1025.77 1505.82 C 1024.26 1503.2 1023.97 1502.3 1022.91 1499.41 C 1023.76 1472.92 1001.31 1397.68 992.066 1372.01 C 914.309 1155.99 770.231 956.47 556.998 856.906 C 560.653 850.495 564.909 841.139 568.25 834.341 L 606.94 851.756 C 610.221 854.687 632.347 865.629 638.279 869.236 C 651.65 877.368 664.733 885.588 677.801 894.331 C 844.247 1005.68 985.738 1201.07 1025.02 1398 C 1027.64 1389.51 1029.83 1376.53 1031.89 1367.48 C 1035.5 1352.01 1039.87 1336.72 1044.99 1321.68 C 1101.89 1159.37 1205.91 1017.73 1343.75 914.864 C 1363.83 899.828 1385.21 886.196 1406.52 872.979 C 1419.39 865.004 1434.89 858.63 1446.99 849.597 z" fill="rgb(36,214,232)" transform="translate(0,0)"></path>
<path d="M 1018.12 1090.83 C 1018.51 1093.55 1019.65 1105.9 1018.54 1108.06 L 1018.4 1108.14 C 1018.36 1108.07 1018.33 1107.99 1018.29 1107.91 L 1017.88 1107.67 C 1017.11 1106.19 1016.96 1105.43 1016.64 1103.83 C 1018.64 1100.1 1017.74 1095.34 1018.12 1090.83 z" fill="rgb(182,181,187)" transform="translate(0,0)"></path>
<path d="M 1022.91 1499.41 C 1023.97 1502.3 1024.26 1503.2 1025.77 1505.82 C 1025.95 1508.11 1026.09 1509.09 1025.44 1511.17 L 1025.13 1511.04 C 1023.32 1510.61 1023.03 1500.98 1022.91 1499.41 z" fill="rgb(115,238,247)" transform="translate(0,0)"></path>
</svg>